<?xml version="1.0" encoding="UTF-8" standalone="no" ?>
<!DOCTYPE svg PUBLIC "-//W3C//DTD SVG 1.1//EN" "http://www.w3.org/Graphics/SVG/1.1/DTD/svg11.dtd">
<svg xmlns="http://www.w3.org/2000/svg" xmlns:xlink="http://www.w3.org/1999/xlink" version="1.1" width="1280" height="1024" viewBox="0 0 1280 1024" xml:space="preserve">
<desc>Created with Fabric.js 4.4.0</desc>
<defs>
</defs>
<g transform="matrix(1 0 0 1 640 512)" id="background-logo"  >
<rect style="stroke: none; stroke-width: 0; stroke-dasharray: none; stroke-linecap: butt; stroke-dashoffset: 0; stroke-linejoin: miter; stroke-miterlimit: 4; fill: rgb(255,255,255); fill-opacity: 0; fill-rule: nonzero; opacity: 1;"  paint-order="stroke"  x="-640" y="-512" rx="0" ry="0" width="1280" height="1024" />
</g>
<g transform="matrix(0.9805091863440315 0 0 0.9805091863440315 180.48602200078955 479.4809442550217)" id="logo-logo"  >
<g style=""  paint-order="stroke"   >
		<g transform="matrix(0.41043916245520023 0 0 -0.41043916245520023 -50.86049230375164 0)"  >
<path style="stroke: none; stroke-width: 1; stroke-dasharray: none; stroke-linecap: butt; stroke-dashoffset: 0; stroke-linejoin: miter; stroke-miterlimit: 4; fill: rgb(23,90,255); fill-rule: nonzero; opacity: 1;"  paint-order="stroke"  transform=" translate(-195.31650000000002, 274.37343252483413)" d="M 0 0 L 0 -548.747 L 381.03 -274.37299999999993 z M -13.501 -588.604 C -15.604 -588.604 -17.713 -588.113 -19.654 -587.119 C -24.163 -584.8100000000001 -27 -580.1700000000001 -27 -575.104 L -27 26.357 C -27 31.423 -24.163 36.063 -19.654 38.373 C -15.146 40.681999999999995 -9.723 40.272999999999996 -5.611000000000001 37.312 L 412.021 -263.417 C 415.545 -265.955 417.63300000000004 -270.03099999999995 417.63300000000004 -274.373 C 417.63300000000004 -278.715 415.545 -282.791 412.021 -285.328 L -5.611 -586.059 C -7.952999999999999 -587.745 -10.719999999999999 -588.6039999999999 -13.501 -588.6039999999999" stroke-linecap="round" />
</g>
		<g transform="matrix(0.41043916245520023 0 0 -0.41043916245520023 -14.442430638682936 1.1001287353363978)"  >
<path style="stroke: none; stroke-width: 1; stroke-dasharray: none; stroke-linecap: butt; stroke-dashoffset: 0; stroke-linejoin: miter; stroke-miterlimit: 4; fill: rgb(80,90,255); fill-rule: nonzero; opacity: 1;"  paint-order="stroke"  transform=" translate(-173.046, 271.1046023237478)" d="M 0 0 L 0 -542.21 L 339.173 -271.10400000000004 z M -11.502 -577.624 C -13.195 -577.624 -14.898 -577.25 -16.483 -576.488 C -20.467 -574.572 -23 -570.5440000000001 -23 -566.124 L -23 23.915 C -23 28.334 -20.467 32.363 -16.483 34.278 C -12.5 36.193999999999996 -7.772 35.658 -4.319000000000001 32.897 L 364.772 -262.122 C 367.502 -264.30400000000003 369.092 -267.60900000000004 369.092 -271.10400000000004 C 369.092 -274.6 367.502 -277.90500000000003 364.772 -280.088 L -4.319 -575.107 C -6.398 -576.769 -8.939 -577.624 -11.501999999999999 -577.624" stroke-linecap="round" />
</g>
		<g transform="matrix(0.41043916245520023 0 0 -0.41043916245520023 21.56519186393058 2.200538162843287)"  >
<path style="stroke: none; stroke-width: 1; stroke-dasharray: none; stroke-linecap: butt; stroke-dashoffset: 0; stroke-linejoin: miter; stroke-miterlimit: 4; fill: rgb(138,90,255); fill-rule: nonzero; opacity: 1;"  paint-order="stroke"  transform=" translate(-150.7755, 267.93755600518614)" d="M 0 0 L 0 -535.875 L 296.872 -267.937 z M -9.502 -566.746 C -10.807 -566.746 -12.120000000000001 -566.477 -13.359000000000002 -565.9259999999999 C -16.789 -564.4019999999999 -19 -560.9999999999999 -19 -557.246 L -19 21.371 C -19 25.125 -16.789 28.526999999999997 -13.359 30.052 C -9.928 31.576 -5.923 30.939 -3.135 28.423 L 317.416 -260.885 C 319.411 -262.686 320.551 -265.24899999999997 320.551 -267.937 C 320.551 -270.625 319.412 -273.188 317.416 -274.99 L -3.135 -564.298 C -4.915 -565.905 -7.194 -566.746 -9.501999999999999 -566.746" stroke-linecap="round" />
</g>
		<g transform="matrix(0.41043916245520023 0 0 -0.41043916245520023 57.98315091920864 3.3004476968046674)"  >
<path style="stroke: none; stroke-width: 1; stroke-dasharray: none; stroke-linecap: butt; stroke-dashoffset: 0; stroke-linejoin: miter; stroke-miterlimit: 4; fill: rgb(195,90,255); fill-rule: nonzero; opacity: 1;"  paint-order="stroke"  transform=" translate(-128.50475, 264.94209173865204)" d="M 0 0 L 0 -529.885 L 254.117 -264.942 z M -7.502 -556.039 C -8.442 -556.039 -9.391 -555.862 -10.298 -555.4979999999999 C -13.139 -554.3549999999999 -15 -551.6009999999999 -15 -548.539 L -15 18.654 C -15 21.716 -13.139 24.471 -10.298 25.613 C -7.454000000000001 26.756 -4.206 26.055 -2.0869999999999997 23.846 L 269.923 -259.751 C 272.705 -262.652 272.705 -267.23199999999997 269.923 -270.13399999999996 L -2.087 -553.73 C -3.5300000000000002 -555.235 -5.497 -556.039 -7.502000000000001 -556.039" stroke-linecap="round" />
</g>
		<g transform="matrix(0.41043916245520023 0 0 -0.41043916245520023 93.99056820224087 4.400675342567581)"  >
<path style="stroke: none; stroke-width: 1; stroke-dasharray: none; stroke-linecap: butt; stroke-dashoffset: 0; stroke-linejoin: miter; stroke-miterlimit: 4; fill: rgb(252,90,255); fill-rule: nonzero; opacity: 1;"  paint-order="stroke"  transform=" translate(-106.23374999999999, 262.26970252438116)" d="M 0 0 L 0 -524.54 L 210.91 -262.27 z M -5.501 -545.656 C -6.111000000000001 -545.656 -6.729 -545.554 -7.327 -545.343 C -9.528 -544.568 -11 -542.4889999999999 -11 -540.156 L -11 15.616 C -11 17.948999999999998 -9.528 20.028 -7.327 20.803 C -5.125 21.580000000000002 -2.676 20.881 -1.2139999999999995 19.062 L 222.254 -258.824 C 223.87199999999999 -260.836 223.87199999999999 -263.704 222.254 -265.716 L -1.214 -543.602 C -2.278 -544.9259999999999 -3.867 -545.656 -5.5009999999999994 -545.656" stroke-linecap="round" />
</g>
</g>
</g>
<g transform="matrix(1.9211538461538462 0 0 1.9211538461538462 797.7541105502767 475.22661450201684)" id="text-logo"  >
<g style=""  paint-order="stroke"   >
		<g transform="matrix(1 0 0 1 0 0)" id="text-logo-path-0"  >
<path style="stroke: none; stroke-width: 0; stroke-dasharray: none; stroke-linecap: butt; stroke-dashoffset: 0; stroke-linejoin: miter; stroke-miterlimit: 4; fill: rgb(252,90,255); fill-rule: nonzero; opacity: 1;"  paint-order="stroke"  transform=" translate(-241.98499999999999, 28.29)" d="M 7.17 0 L 7.17 -57.35 L 24.03 -57.35 Q 35.83 -57.35 41.34 -55.68 L 41.34 -55.68 Q 47.62 -53.74 51.04 -50.7 Q 54.47 -47.66 56.41 -44.42 L 56.41 -44.42 Q 60.39 -37.81 60.39 -29.42 L 60.39 -29.42 Q 60.39 -16.21 50.9 -8.02 L 50.9 -8.02 Q 44.17 -2.15 35.06 -0.77 L 35.06 -0.77 Q 29.99 0 20.87 0 L 20.87 0 L 7.17 0 Z M 27.84 -54.27 L 27.84 -3.36 Q 28.49 -3.32 29.02 -3.32 L 29.02 -3.32 L 29.95 -3.32 Q 40.93 -3.32 48.71 -10.17 L 48.71 -10.17 Q 56.94 -17.39 56.94 -29.34 L 56.94 -29.34 Q 56.94 -36.88 53.33 -42.92 L 53.33 -42.92 Q 48.11 -51.71 36.8 -53.58 L 36.8 -53.58 Q 33.11 -54.19 27.84 -54.27 L 27.84 -54.27 Z M 70.96 0 L 70.96 -43.28 L 88.39 -43.28 L 88.39 -30.56 Q 91.19 -37.49 94.41 -40.75 Q 97.63 -44.01 100.87 -44.01 L 100.87 -44.01 Q 102.7 -44.01 103.77 -43.06 Q 104.84 -42.11 104.84 -40.93 Q 104.84 -39.76 104.52 -39.07 Q 104.2 -38.38 103.67 -37.89 L 103.67 -37.89 Q 102.57 -36.88 101.6 -36.88 L 101.6 -36.88 Q 100.06 -36.88 99.33 -37.2 L 99.33 -37.2 Q 98.08 -37.77 97.1 -37.77 Q 96.13 -37.77 94.63 -36.21 Q 93.13 -34.65 91.75 -31.9 L 91.75 -31.9 Q 88.39 -25.17 88.39 -17.31 L 88.39 -17.31 L 88.39 0 L 70.96 0 Z M 147.68 -9.85 L 147.68 -9.85 Q 149.26 -9.85 149.26 -8.39 L 149.26 -8.39 Q 149.26 -7.29 147.84 -5.8 L 147.84 -5.8 Q 141.44 0.77 130.3 0.77 L 130.3 0.77 Q 120.29 0.77 113.44 -5.27 L 113.44 -5.27 Q 106.34 -11.55 106.34 -21.16 L 106.34 -21.16 Q 106.34 -30.96 112.75 -37.29 L 112.75 -37.29 Q 119.52 -44.01 130.74 -44.01 L 130.74 -44.01 Q 139.74 -44.01 145.86 -38.54 L 145.86 -38.54 Q 152.46 -32.67 152.46 -23.1 L 152.46 -23.1 Q 152.46 -21.72 152.38 -20.18 L 152.38 -20.18 L 125.63 -20.18 L 125.63 -2.8 Q 128.39 -2.23 131.84 -2.23 L 131.84 -2.23 Q 139.13 -2.23 144.28 -7.05 L 144.28 -7.05 Q 145.33 -8.11 145.78 -8.71 L 145.78 -8.71 Q 146.71 -9.85 147.68 -9.85 Z M 136.86 -23.14 L 136.86 -40.28 Q 134.23 -41.05 130.9 -41.05 Q 127.58 -41.05 125.63 -40.61 L 125.63 -40.61 L 125.63 -23.14 L 136.86 -23.14 Z M 189.87 0 L 189.87 -2.67 Q 184.68 0.77 178.36 0.77 L 178.36 0.77 Q 169.97 0.77 164.91 -3.44 L 164.91 -3.44 Q 159.64 -7.78 159.64 -15.48 L 159.64 -15.48 Q 159.64 -22.29 164.87 -26.67 L 164.87 -26.67 Q 170.21 -31.08 178.93 -31.08 L 178.93 -31.08 Q 184.76 -31.08 189.87 -28.86 L 189.87 -28.86 L 189.87 -40 Q 186.18 -41.05 183.37 -41.05 Q 180.55 -41.05 178.6 -40.81 Q 176.66 -40.57 174.92 -40.08 L 174.92 -40.08 Q 171.15 -39.03 169.2 -37.24 L 169.2 -37.24 Q 168.07 -36.19 167.13 -36.19 Q 166.2 -36.19 165.72 -36.66 Q 165.23 -37.12 165.23 -37.69 Q 165.23 -38.26 165.43 -38.72 Q 165.64 -39.19 166.2 -39.68 L 166.2 -39.68 Q 167.42 -40.73 170.26 -41.78 L 170.26 -41.78 Q 176.13 -44.01 182.05 -44.01 L 182.05 -44.01 Q 200.04 -44.01 205.03 -35.42 L 205.03 -35.42 Q 207.22 -31.61 207.22 -25.41 L 207.22 -25.41 L 207.22 0 L 189.87 0 Z M 189.87 -6.16 L 189.87 -25.69 Q 184.76 -28.17 179.7 -28.17 L 179.7 -28.17 Q 178.89 -28.17 178.16 -28.04 L 178.16 -28.04 L 178.16 -2.27 Q 178.36 -2.23 178.6 -2.23 Q 178.85 -2.23 179.09 -2.23 L 179.09 -2.23 Q 184.64 -2.23 189.87 -6.16 L 189.87 -6.16 Z M 266.83 -32.1 L 266.83 -32.1 Q 266.91 -31.13 266.91 -30.15 L 266.91 -30.15 L 266.91 0 L 249.53 0 L 249.53 -39.31 Q 249.08 -39.51 248.47 -39.51 L 248.47 -39.51 L 247.18 -39.51 Q 244.02 -39.51 239.8 -35.18 L 239.8 -35.18 Q 238.5 -33.84 237.33 -32.22 L 237.33 -32.22 L 237.33 0 L 219.9 0 L 219.9 -43.28 L 237.33 -43.28 L 237.33 -36.76 Q 244.18 -44.01 252.65 -44.01 L 252.65 -44.01 Q 263.59 -44.01 266.14 -35.91 L 266.14 -35.91 Q 269.63 -39.92 273.82 -41.97 Q 278.02 -44.01 282.27 -44.01 L 282.27 -44.01 Q 289.53 -44.01 293.01 -40.57 Q 296.5 -37.12 296.5 -30.15 L 296.5 -30.15 L 296.5 0 L 279.11 0 L 279.11 -39.35 Q 278.75 -39.51 277.29 -39.51 Q 275.83 -39.51 274.59 -38.97 Q 273.36 -38.42 272.06 -37.45 L 272.06 -37.45 Q 269.22 -35.38 266.83 -32.1 Z M 306.59 -5.43 L 306.59 -5.43 Q 306.59 -6.04 307.01 -6.55 Q 307.44 -7.05 308.13 -7.05 Q 308.82 -7.05 309.26 -6.65 L 309.26 -6.65 Q 309.26 -6.65 310.28 -5.71 L 310.28 -5.71 Q 314.49 -2.03 322.07 -2.03 L 322.07 -2.03 Q 327.18 -2.03 328.64 -4.13 L 328.64 -4.13 Q 329.04 -4.7 329.04 -5.29 Q 329.04 -5.88 328.82 -6.42 Q 328.6 -6.97 327.87 -7.76 Q 327.14 -8.55 325.8 -9.65 L 325.8 -9.65 L 322.23 -12.52 Q 313.4 -19.41 310.12 -23.71 L 310.12 -23.71 Q 307.12 -27.64 307.12 -31.73 L 307.12 -31.73 Q 307.12 -36.88 311.86 -40.37 L 311.86 -40.37 Q 316.76 -44.01 324.54 -44.01 L 324.54 -44.01 Q 330.01 -44.01 333.18 -42.76 Q 336.34 -41.5 337.63 -40.47 Q 338.93 -39.43 338.93 -38.58 L 338.93 -38.58 Q 338.93 -36.84 337.55 -36.84 L 337.55 -36.84 Q 336.9 -36.84 336.36 -37.31 Q 335.81 -37.77 334.19 -38.89 Q 332.57 -40 329.89 -40.65 Q 327.22 -41.3 324.91 -41.3 Q 322.6 -41.3 321.65 -40.57 Q 320.69 -39.84 320.69 -39.13 Q 320.69 -38.42 320.98 -37.79 Q 321.26 -37.16 322.03 -36.31 L 322.03 -36.31 Q 323.81 -34.21 327.74 -31.33 Q 331.68 -28.45 334.39 -26.06 Q 337.11 -23.67 338.65 -21.64 L 338.65 -21.64 Q 341.44 -17.99 341.44 -14.27 Q 341.44 -10.54 340.06 -7.88 Q 338.69 -5.23 336.13 -3.32 L 336.13 -3.32 Q 330.74 0.77 321.75 0.77 L 321.75 0.77 Q 314.53 0.77 309.71 -1.99 L 309.71 -1.99 Q 306.59 -3.73 306.59 -5.43 Z M 367.87 0.77 L 367.87 0.77 Q 351.98 0.77 351.98 -13.74 L 351.98 -13.74 L 351.94 -40.32 L 347.28 -40.12 Q 345.09 -40.12 345.09 -41.78 Q 345.09 -43.45 347.44 -43.45 L 347.44 -43.45 L 351.33 -43.28 L 351.94 -43.28 L 351.94 -49.56 L 369.33 -57.35 L 369.33 -43.28 L 374.76 -43.28 L 378.61 -43.45 Q 381 -43.45 381 -41.74 L 381 -41.74 Q 381 -40.97 380.33 -40.55 Q 379.66 -40.12 378.81 -40.12 L 378.81 -40.12 L 373.78 -40.32 L 369.33 -40.32 L 369.33 -2.23 Q 374.07 -2.31 377.23 -4.94 L 377.23 -4.94 Q 378.73 -6.08 379.36 -7.86 Q 379.98 -9.65 380.49 -10.15 Q 381 -10.66 381.69 -10.66 L 381.69 -10.66 Q 382.38 -10.66 382.86 -10.11 Q 383.35 -9.56 383.35 -8.81 Q 383.35 -8.06 382.94 -7.15 Q 382.54 -6.24 381.73 -5.23 L 381.73 -5.23 Q 379.9 -2.96 377.51 -1.62 L 377.51 -1.62 Q 373.18 0.77 367.87 0.77 Z M 427.85 -9.85 L 427.85 -9.85 Q 429.43 -9.85 429.43 -8.39 L 429.43 -8.39 Q 429.43 -7.29 428.01 -5.8 L 428.01 -5.8 Q 421.61 0.77 410.46 0.77 L 410.46 0.77 Q 400.45 0.77 393.6 -5.27 L 393.6 -5.27 Q 386.51 -11.55 386.51 -21.16 L 386.51 -21.16 Q 386.51 -30.96 392.91 -37.29 L 392.91 -37.29 Q 399.68 -44.01 410.91 -44.01 L 410.91 -44.01 Q 419.9 -44.01 426.02 -38.54 L 426.02 -38.54 Q 432.63 -32.67 432.63 -23.1 L 432.63 -23.1 Q 432.63 -21.72 432.55 -20.18 L 432.55 -20.18 L 405.8 -20.18 L 405.8 -2.8 Q 408.56 -2.23 412 -2.23 L 412 -2.23 Q 419.3 -2.23 424.44 -7.05 L 424.44 -7.05 Q 425.5 -8.11 425.94 -8.71 L 425.94 -8.71 Q 426.87 -9.85 427.85 -9.85 Z M 417.03 -23.14 L 417.03 -40.28 Q 414.39 -41.05 411.07 -41.05 Q 407.75 -41.05 405.8 -40.61 L 405.8 -40.61 L 405.8 -23.14 L 417.03 -23.14 Z M 442.92 0 L 442.92 -43.28 L 460.35 -43.28 L 460.35 -30.56 Q 463.15 -37.49 466.37 -40.75 Q 469.59 -44.01 472.83 -44.01 L 472.83 -44.01 Q 474.66 -44.01 475.73 -43.06 Q 476.8 -42.11 476.8 -40.93 Q 476.8 -39.76 476.48 -39.07 Q 476.16 -38.38 475.63 -37.89 L 475.63 -37.89 Q 474.53 -36.88 473.56 -36.88 L 473.56 -36.88 Q 472.02 -36.88 471.29 -37.2 L 471.29 -37.2 Q 470.04 -37.77 469.06 -37.77 Q 468.09 -37.77 466.59 -36.21 Q 465.09 -34.65 463.71 -31.9 L 463.71 -31.9 Q 460.35 -25.17 460.35 -17.31 L 460.35 -17.31 L 460.35 0 L 442.92 0 Z" stroke-linecap="round" />
</g>
</g>
</g>
<g transform="matrix(1.9211538461538462 0 0 1.9211538461538462 766.5542953867534 622.4357195740527)" id="tagline-8d2542dd-0e7a-4346-9a5d-bf7660e41700-logo"  >
<g style=""  paint-order="stroke"   >
		<g transform="matrix(1 0 0 1 0 0)" id="tagline-8d2542dd-0e7a-4346-9a5d-bf7660e41700-logo-path-0"  >
<path style="stroke: none; stroke-width: 0; stroke-dasharray: none; stroke-linecap: butt; stroke-dashoffset: 0; stroke-linejoin: miter; stroke-miterlimit: 4; fill: rgb(255,255,255); fill-rule: nonzero; opacity: 1;"  paint-order="stroke"  transform=" translate(0, 0)" d="" stroke-linecap="round" />
</g>
</g>
</g>
<g transform="matrix(1.9208612451177594 0.033528757751627364 -0.033528757751627364 1.9208612451177594 1213.5347840758227 393.80564968216737)" id="tagline-1aa4bb98-7a23-4a7e-beee-1d99c8f85e83-logo"  >
<g style=""  paint-order="stroke"   >
		<g transform="matrix(1 0 0 1 0 0)" id="tagline-1aa4bb98-7a23-4a7e-beee-1d99c8f85e83-logo-path-0"  >
<path style="stroke: none; stroke-width: 0; stroke-dasharray: none; stroke-linecap: butt; stroke-dashoffset: 0; stroke-linejoin: miter; stroke-miterlimit: 4; fill: rgb(252,90,255); fill-rule: nonzero; opacity: 1;"  paint-order="stroke"  transform=" translate(-20.685000000000002, 9.515)" d="M 15.87 -18.31 L 15.87 -18.31 Q 15.87 -17.71 14.59 -17.71 L 14.59 -17.71 L 11.54 -17.71 L 11.54 0 L 4.79 0 L 4.79 -17.71 L 2.81 -17.71 Q 1.79 -17.71 1.41 -17.61 L 1.41 -17.61 Q 0.91 -17.51 0.69 -17.51 L 0.69 -17.51 Q 0.01 -17.51 0.01 -18.04 L 0.01 -18.04 Q 0.01 -18.65 1.32 -18.65 L 1.32 -18.65 L 13.08 -18.65 Q 13.99 -18.65 14.42 -18.73 L 14.42 -18.73 Q 14.95 -18.83 15.21 -18.83 L 15.21 -18.83 Q 15.87 -18.83 15.87 -18.31 Z M 16.98 0.2 Q 16.73 0.17 16.6 -0.03 Q 16.47 -0.22 16.49 -0.46 L 16.49 -0.46 Q 16.56 -0.87 16.74 -1.21 Q 16.93 -1.56 17.01 -1.73 Q 17.1 -1.9 17.19 -2.11 L 17.19 -2.11 L 17.69 -3.27 L 23.11 -19.5 L 28.94 -8.24 L 34.59 -19.5 L 41.36 0 L 34.28 0 L 31.01 -10.07 L 25.95 0.47 L 20.62 -9.02 L 18.77 -3.26 Q 18.34 -2.29 18.15 -1.62 Q 17.97 -0.95 17.85 -0.58 L 17.85 -0.58 Q 17.59 0.25 16.98 0.2 L 16.98 0.2 Z" stroke-linecap="round" />
</g>
</g>
</g>
</svg>